<svg xmlns="http://www.w3.org/2000/svg" xmlns:xlink="http://www.w3.org/1999/xlink" width="500" zoomAndPan="magnify" viewBox="0 0 375 374.999991" height="500" preserveAspectRatio="xMidYMid meet" version="1.0"><defs><g/><clipPath id="94e64982f4"><path d="M 166.035156 209 L 186.285156 209 L 186.285156 218.75 L 166.035156 218.75 Z M 166.035156 209 " clip-rule="nonzero"/></clipPath><clipPath id="8bc1168fa1"><rect x="0" width="114" y="0" height="157"/></clipPath><clipPath id="44dbb7fd5f"><rect x="0" width="62" y="0" height="230"/></clipPath><clipPath id="b7f12a3e52"><path d="M 81.6875 36 L 293.1875 36 L 293.1875 298.832031 L 81.6875 298.832031 Z M 81.6875 36 " clip-rule="nonzero"/></clipPath><clipPath id="ecc0aa4900"><path d="M 58 158 L 67 158 L 67 185 L 58 185 Z M 58 158 " clip-rule="nonzero"/></clipPath><clipPath id="75e5b33983"><path d="M 17.636719 188.535156 L 86.46875 145.835938 L 187.679688 308.992188 L 118.847656 351.691406 Z M 17.636719 188.535156 " clip-rule="nonzero"/></clipPath><clipPath id="a2bc9f4d15"><path d="M 17.636719 188.535156 L 86.46875 145.835938 L 187.679688 308.992188 L 118.847656 351.691406 Z M 17.636719 188.535156 " clip-rule="nonzero"/></clipPath><clipPath id="aaf11ebc80"><path d="M 47 174 L 72 174 L 72 208 L 47 208 Z M 47 174 " clip-rule="nonzero"/></clipPath><clipPath id="e02fd0d0df"><path d="M 17.636719 188.535156 L 86.46875 145.835938 L 187.679688 308.992188 L 118.847656 351.691406 Z M 17.636719 188.535156 " clip-rule="nonzero"/></clipPath><clipPath id="6ad5d68833"><path d="M 17.636719 188.535156 L 86.46875 145.835938 L 187.679688 308.992188 L 118.847656 351.691406 Z M 17.636719 188.535156 " clip-rule="nonzero"/></clipPath><clipPath id="6e972552b9"><path d="M 45 199 L 71 199 L 71 230 L 45 230 Z M 45 199 " clip-rule="nonzero"/></clipPath><clipPath id="576a828029"><path d="M 17.636719 188.535156 L 86.46875 145.835938 L 187.679688 308.992188 L 118.847656 351.691406 Z M 17.636719 188.535156 " clip-rule="nonzero"/></clipPath><clipPath id="44aa6f3399"><path d="M 17.636719 188.535156 L 86.46875 145.835938 L 187.679688 308.992188 L 118.847656 351.691406 Z M 17.636719 188.535156 " clip-rule="nonzero"/></clipPath><clipPath id="a67c11f048"><path d="M 48 219 L 75 219 L 75 252 L 48 252 Z M 48 219 " clip-rule="nonzero"/></clipPath><clipPath id="50c180f553"><path d="M 17.636719 188.535156 L 86.46875 145.835938 L 187.679688 308.992188 L 118.847656 351.691406 Z M 17.636719 188.535156 " clip-rule="nonzero"/></clipPath><clipPath id="fc623aecd9"><path d="M 17.636719 188.535156 L 86.46875 145.835938 L 187.679688 308.992188 L 118.847656 351.691406 Z M 17.636719 188.535156 " clip-rule="nonzero"/></clipPath><clipPath id="ba63331d80"><path d="M 56 238 L 87 238 L 87 272 L 56 272 Z M 56 238 " clip-rule="nonzero"/></clipPath><clipPath id="0d37d29949"><path d="M 17.636719 188.535156 L 86.46875 145.835938 L 187.679688 308.992188 L 118.847656 351.691406 Z M 17.636719 188.535156 " clip-rule="nonzero"/></clipPath><clipPath id="2d73095925"><path d="M 17.636719 188.535156 L 86.46875 145.835938 L 187.679688 308.992188 L 118.847656 351.691406 Z M 17.636719 188.535156 " clip-rule="nonzero"/></clipPath><clipPath id="9fc5b6196f"><path d="M 69 256 L 105 256 L 105 289 L 69 289 Z M 69 256 " clip-rule="nonzero"/></clipPath><clipPath id="57eaca2ef0"><path d="M 17.636719 188.535156 L 86.46875 145.835938 L 187.679688 308.992188 L 118.847656 351.691406 Z M 17.636719 188.535156 " clip-rule="nonzero"/></clipPath><clipPath id="bffebe7de3"><path d="M 17.636719 188.535156 L 86.46875 145.835938 L 187.679688 308.992188 L 118.847656 351.691406 Z M 17.636719 188.535156 " clip-rule="nonzero"/></clipPath><clipPath id="b5d9d76394"><path d="M 88 272 L 128 272 L 128 303 L 88 303 Z M 88 272 " clip-rule="nonzero"/></clipPath><clipPath id="ae6a379e49"><path d="M 17.636719 188.535156 L 86.46875 145.835938 L 187.679688 308.992188 L 118.847656 351.691406 Z M 17.636719 188.535156 " clip-rule="nonzero"/></clipPath><clipPath id="0e54591b33"><path d="M 17.636719 188.535156 L 86.46875 145.835938 L 187.679688 308.992188 L 118.847656 351.691406 Z M 17.636719 188.535156 " clip-rule="nonzero"/></clipPath><clipPath id="db0b404013"><path d="M 112 284 L 187 284 L 187 316 L 112 316 Z M 112 284 " clip-rule="nonzero"/></clipPath><clipPath id="5972d3412f"><path d="M 17.636719 188.535156 L 86.46875 145.835938 L 187.679688 308.992188 L 118.847656 351.691406 Z M 17.636719 188.535156 " clip-rule="nonzero"/></clipPath><clipPath id="8d19d33bc3"><path d="M 17.636719 188.535156 L 86.46875 145.835938 L 187.679688 308.992188 L 118.847656 351.691406 Z M 17.636719 188.535156 " clip-rule="nonzero"/></clipPath><clipPath id="9364c5fbef"><path d="M 187 145 L 358 145 L 358 352 L 187 352 Z M 187 145 " clip-rule="nonzero"/></clipPath><clipPath id="200e186ac8"><path d="M 288.527344 145.839844 L 357.371094 188.523438 L 256.195312 351.703125 L 187.351562 309.019531 Z M 288.527344 145.839844 " clip-rule="nonzero"/></clipPath><clipPath id="b12752ce64"><path d="M 121 13 L 130 13 L 130 40 L 121 40 Z M 121 13 " clip-rule="nonzero"/></clipPath><clipPath id="8d7446ebf8"><path d="M 101.527344 0.839844 L 170.371094 43.523438 L 69.195312 206.703125 L 0.351562 164.019531 Z M 101.527344 0.839844 " clip-rule="nonzero"/></clipPath><clipPath id="6d2b8b183a"><path d="M 170.359375 43.515625 L 101.519531 0.832031 L 0.34375 164.011719 L 69.183594 206.695312 Z M 170.359375 43.515625 " clip-rule="nonzero"/></clipPath><clipPath id="9daec7b9e5"><path d="M 170.359375 43.515625 L 101.519531 0.832031 L 0.34375 164.011719 L 69.183594 206.695312 Z M 170.359375 43.515625 " clip-rule="nonzero"/></clipPath><clipPath id="59c36ac057"><path d="M 116 29 L 141 29 L 141 63 L 116 63 Z M 116 29 " clip-rule="nonzero"/></clipPath><clipPath id="e9361a1298"><path d="M 101.527344 0.839844 L 170.371094 43.523438 L 69.195312 206.703125 L 0.351562 164.019531 Z M 101.527344 0.839844 " clip-rule="nonzero"/></clipPath><clipPath id="ef1f4e231f"><path d="M 170.359375 43.515625 L 101.519531 0.832031 L 0.34375 164.011719 L 69.183594 206.695312 Z M 170.359375 43.515625 " clip-rule="nonzero"/></clipPath><clipPath id="8dc72735cc"><path d="M 170.359375 43.515625 L 101.519531 0.832031 L 0.34375 164.011719 L 69.183594 206.695312 Z M 170.359375 43.515625 " clip-rule="nonzero"/></clipPath><clipPath id="df227702fd"><path d="M 117 54 L 143 54 L 143 85 L 117 85 Z M 117 54 " clip-rule="nonzero"/></clipPath><clipPath id="f66a9f9d7a"><path d="M 101.527344 0.839844 L 170.371094 43.523438 L 69.195312 206.703125 L 0.351562 164.019531 Z M 101.527344 0.839844 " clip-rule="nonzero"/></clipPath><clipPath id="1e08bedb8b"><path d="M 170.359375 43.515625 L 101.519531 0.832031 L 0.34375 164.011719 L 69.183594 206.695312 Z M 170.359375 43.515625 " clip-rule="nonzero"/></clipPath><clipPath id="3a74bddfb7"><path d="M 170.359375 43.515625 L 101.519531 0.832031 L 0.34375 164.011719 L 69.183594 206.695312 Z M 170.359375 43.515625 " clip-rule="nonzero"/></clipPath><clipPath id="0bf546bcae"><path d="M 113 74 L 140 74 L 140 107 L 113 107 Z M 113 74 " clip-rule="nonzero"/></clipPath><clipPath id="4b7720c8d4"><path d="M 101.527344 0.839844 L 170.371094 43.523438 L 69.195312 206.703125 L 0.351562 164.019531 Z M 101.527344 0.839844 " clip-rule="nonzero"/></clipPath><clipPath id="f52f69c4ab"><path d="M 170.359375 43.515625 L 101.519531 0.832031 L 0.34375 164.011719 L 69.183594 206.695312 Z M 170.359375 43.515625 " clip-rule="nonzero"/></clipPath><clipPath id="87f44d6a4b"><path d="M 170.359375 43.515625 L 101.519531 0.832031 L 0.34375 164.011719 L 69.183594 206.695312 Z M 170.359375 43.515625 " clip-rule="nonzero"/></clipPath><clipPath id="a2c872c47b"><path d="M 101 93 L 132 93 L 132 127 L 101 127 Z M 101 93 " clip-rule="nonzero"/></clipPath><clipPath id="1f9be0ad68"><path d="M 101.527344 0.839844 L 170.371094 43.523438 L 69.195312 206.703125 L 0.351562 164.019531 Z M 101.527344 0.839844 " clip-rule="nonzero"/></clipPath><clipPath id="980fdf94e4"><path d="M 170.359375 43.515625 L 101.519531 0.832031 L 0.34375 164.011719 L 69.183594 206.695312 Z M 170.359375 43.515625 " clip-rule="nonzero"/></clipPath><clipPath id="9610d4ec92"><path d="M 170.359375 43.515625 L 101.519531 0.832031 L 0.34375 164.011719 L 69.183594 206.695312 Z M 170.359375 43.515625 " clip-rule="nonzero"/></clipPath><clipPath id="f038508908"><path d="M 83 111 L 119 111 L 119 144 L 83 144 Z M 83 111 " clip-rule="nonzero"/></clipPath><clipPath id="7bde8c8928"><path d="M 101.527344 0.839844 L 170.371094 43.523438 L 69.195312 206.703125 L 0.351562 164.019531 Z M 101.527344 0.839844 " clip-rule="nonzero"/></clipPath><clipPath id="0b83c0baf4"><path d="M 170.359375 43.515625 L 101.519531 0.832031 L 0.34375 164.011719 L 69.183594 206.695312 Z M 170.359375 43.515625 " clip-rule="nonzero"/></clipPath><clipPath id="5f96f1ddbb"><path d="M 170.359375 43.515625 L 101.519531 0.832031 L 0.34375 164.011719 L 69.183594 206.695312 Z M 170.359375 43.515625 " clip-rule="nonzero"/></clipPath><clipPath id="fb8e5d9523"><path d="M 60 127 L 100 127 L 100 158 L 60 158 Z M 60 127 " clip-rule="nonzero"/></clipPath><clipPath id="f053f0b802"><path d="M 101.527344 0.839844 L 170.371094 43.523438 L 69.195312 206.703125 L 0.351562 164.019531 Z M 101.527344 0.839844 " clip-rule="nonzero"/></clipPath><clipPath id="e8fdc92ff2"><path d="M 170.359375 43.515625 L 101.519531 0.832031 L 0.34375 164.011719 L 69.183594 206.695312 Z M 170.359375 43.515625 " clip-rule="nonzero"/></clipPath><clipPath id="41c45418c8"><path d="M 170.359375 43.515625 L 101.519531 0.832031 L 0.34375 164.011719 L 69.183594 206.695312 Z M 170.359375 43.515625 " clip-rule="nonzero"/></clipPath><clipPath id="679dd4f599"><path d="M 1 139 L 76 139 L 76 171 L 1 171 Z M 1 139 " clip-rule="nonzero"/></clipPath><clipPath id="554c9b4b76"><path d="M 101.527344 0.839844 L 170.371094 43.523438 L 69.195312 206.703125 L 0.351562 164.019531 Z M 101.527344 0.839844 " clip-rule="nonzero"/></clipPath><clipPath id="3a6b5ddd5b"><path d="M 170.359375 43.515625 L 101.519531 0.832031 L 0.34375 164.011719 L 69.183594 206.695312 Z M 170.359375 43.515625 " clip-rule="nonzero"/></clipPath><clipPath id="77c14ec9f7"><path d="M 170.359375 43.515625 L 101.519531 0.832031 L 0.34375 164.011719 L 69.183594 206.695312 Z M 170.359375 43.515625 " clip-rule="nonzero"/></clipPath><clipPath id="36b277439a"><rect x="0" width="171" y="0" height="207"/></clipPath></defs><g clip-path="url(#94e64982f4)"><path fill="#2a2118" d="M 186.085938 209 C 185.988281 214.453125 181.539062 218.839844 176.058594 218.839844 C 170.585938 218.839844 166.136719 214.453125 166.042969 209 Z M 186.085938 209 " fill-opacity="1" fill-rule="nonzero"/></g><g transform="matrix(1, 0, 0, 1, 160, 96)"><g clip-path="url(#8bc1168fa1)"><g fill="#2a2118" fill-opacity="1"><g transform="translate(0.716498, 108.078917)"><g><path d="M 110.828125 19.703125 C 107.492188 20.847656 104.078125 21.707031 100.578125 22.28125 C 97.085938 22.851562 93.570312 23.140625 90.03125 23.140625 C 82.425781 23.140625 76.253906 21.882812 71.515625 19.375 C 66.773438 16.875 62.863281 13.644531 59.78125 9.6875 C 56.707031 5.726562 54.257812 1.328125 52.4375 -3.515625 C 50.613281 -8.359375 48.84375 -13.148438 47.125 -17.890625 C 45.40625 -22.640625 43.453125 -27.070312 41.265625 -31.1875 C 39.078125 -35.300781 36.160156 -38.554688 32.515625 -40.953125 C 32.203125 -41.160156 31.863281 -41.34375 31.5 -41.5 C 31.132812 -41.65625 30.796875 -41.734375 30.484375 -41.734375 C 30.066406 -41.734375 29.46875 -41.394531 28.6875 -40.71875 C 27.90625 -40.039062 27.097656 -39.285156 26.265625 -38.453125 C 25.429688 -37.617188 24.648438 -36.757812 23.921875 -35.875 C 23.191406 -34.988281 22.671875 -34.390625 22.359375 -34.078125 C 21.628906 -33.242188 21.132812 -32.59375 20.875 -32.125 C 20.613281 -31.65625 20.484375 -30.847656 20.484375 -29.703125 L 20.484375 -10.3125 C 20.484375 -8.226562 20.847656 -6.171875 21.578125 -4.140625 C 22.304688 -2.109375 23.765625 -0.726562 25.953125 0 L 5.3125 0 C 7.707031 -0.726562 9.242188 -2.109375 9.921875 -4.140625 C 10.597656 -6.171875 10.9375 -8.28125 10.9375 -10.46875 L 10.9375 -67.0625 C 10.9375 -69.144531 10.546875 -71.097656 9.765625 -72.921875 C 8.984375 -74.742188 7.5 -75.96875 5.3125 -76.59375 L 25.953125 -76.59375 C 23.765625 -75.863281 22.304688 -74.585938 21.578125 -72.765625 C 20.847656 -70.941406 20.484375 -68.988281 20.484375 -66.90625 L 20.484375 -33.921875 L 51.109375 -66.75 C 51.628906 -67.269531 52.046875 -67.867188 52.359375 -68.546875 C 52.671875 -69.222656 52.828125 -69.976562 52.828125 -70.8125 C 52.828125 -72.164062 52.382812 -73.335938 51.5 -74.328125 C 50.613281 -75.316406 49.597656 -76.070312 48.453125 -76.59375 L 65.8125 -76.59375 C 63.832031 -75.96875 61.691406 -74.691406 59.390625 -72.765625 C 57.097656 -70.835938 55.222656 -69.144531 53.765625 -67.6875 L 31.734375 -43.921875 C 31.523438 -43.710938 31.421875 -43.453125 31.421875 -43.140625 L 31.890625 -42.515625 L 34.703125 -40.953125 C 35.742188 -40.429688 36.628906 -39.804688 37.359375 -39.078125 C 38.609375 -38.035156 39.832031 -36.785156 41.03125 -35.328125 C 42.226562 -33.867188 43.347656 -32.304688 44.390625 -30.640625 C 45.429688 -28.972656 46.445312 -27.304688 47.4375 -25.640625 C 48.425781 -23.972656 49.285156 -22.410156 50.015625 -20.953125 C 52.515625 -16.460938 55.144531 -11.742188 57.90625 -6.796875 C 60.675781 -1.847656 63.859375 2.65625 67.453125 6.71875 C 71.046875 10.78125 75.132812 14.113281 79.71875 16.71875 C 84.300781 19.332031 89.613281 20.640625 95.65625 20.640625 C 100.976562 20.640625 106.035156 19.851562 110.828125 18.28125 Z M 110.828125 19.703125 "/></g></g></g></g></g><g transform="matrix(1, 0, 0, 1, 118, 46)"><g clip-path="url(#44dbb7fd5f)"><g fill="#2a2118" fill-opacity="1"><g transform="translate(14.779366, 158.874979)"><g><path d="M 1.84375 37.953125 C -0.300781 39.492188 -2.523438 40.800781 -4.828125 41.875 C -7.128906 42.945312 -9.582031 43.789062 -12.1875 44.40625 L -12.1875 43.25 C -6.207031 41.40625 -1.414062 38.222656 2.1875 33.703125 C 5.789062 29.179688 8.550781 24.117188 10.46875 18.515625 C 12.382812 12.921875 13.648438 7.015625 14.265625 0.796875 C 14.878906 -5.410156 15.1875 -11.117188 15.1875 -16.328125 L 15.1875 -94.78125 C 15.1875 -96.46875 15.109375 -98.234375 14.953125 -100.078125 C 14.796875 -101.921875 14.445312 -103.6875 13.90625 -105.375 C 13.375 -107.0625 12.53125 -108.554688 11.375 -109.859375 C 10.226562 -111.160156 8.660156 -112.117188 6.671875 -112.734375 L 37.5 -112.734375 C 35.507812 -112.117188 33.9375 -111.160156 32.78125 -109.859375 C 31.632812 -108.554688 30.789062 -107.0625 30.25 -105.375 C 29.71875 -103.6875 29.410156 -101.921875 29.328125 -100.078125 C 29.253906 -98.234375 29.21875 -96.46875 29.21875 -94.78125 L 29.21875 -16.328125 C 29.21875 -5.285156 27.03125 4.945312 22.65625 14.375 C 18.289062 23.8125 11.351562 31.671875 1.84375 37.953125 Z M 1.84375 37.953125 "/></g></g></g></g></g><g clip-path="url(#b7f12a3e52)"><path fill="#2a2118" d="M 291.355469 62.484375 C 232.046875 31.832031 178.722656 33.460938 144.449219 40.230469 C 107.234375 47.578125 84.351562 62.011719 83.40625 62.640625 L 81.832031 63.640625 L 81.832031 192.964844 C 81.832031 251.226562 129.226562 298.621094 187.484375 298.621094 C 245.796875 298.621094 293.195312 251.226562 293.195312 192.914062 L 293.195312 63.429688 Z M 286.371094 192.914062 C 286.371094 247.449219 242.019531 291.796875 187.484375 291.796875 C 132.953125 291.796875 88.601562 247.449219 88.601562 192.914062 L 88.601562 67.417969 C 94.375 64.113281 115.371094 52.878906 146.023438 46.84375 C 178.824219 40.441406 229.683594 38.867188 286.371094 67.574219 Z M 286.371094 192.914062 " fill-opacity="1" fill-rule="nonzero"/></g><g clip-path="url(#ecc0aa4900)"><g clip-path="url(#75e5b33983)"><g clip-path="url(#a2bc9f4d15)"><path fill="#2a2118" d="M 62.386719 177.507812 C 62.992188 176.476562 63.53125 175.441406 64.070312 174.398438 C 64.589844 173.347656 65.007812 172.269531 65.371094 171.140625 C 65.542969 170.574219 65.695312 170.007812 65.824219 169.441406 C 65.957031 168.878906 66.097656 168.332031 66.199219 167.777344 C 66.308594 167.226562 66.394531 166.679688 66.457031 166.132812 C 66.53125 165.59375 66.605469 165.0625 66.648438 164.535156 C 66.796875 162.414062 66.761719 160.433594 66.386719 158.628906 C 64.847656 159.558594 63.265625 160.933594 61.960938 162.734375 C 61.628906 163.183594 61.296875 163.652344 60.996094 164.148438 C 60.703125 164.644531 60.417969 165.164062 60.148438 165.703125 C 59.882812 166.242188 59.617188 166.796875 59.390625 167.375 C 59.171875 167.953125 58.96875 168.550781 58.78125 169.160156 C 58.394531 170.375 58.242188 171.589844 58.175781 172.789062 C 58.09375 173.984375 58.179688 175.183594 58.28125 176.390625 C 58.339844 176.996094 58.378906 177.601562 58.464844 178.21875 C 58.542969 178.835938 58.621094 179.460938 58.691406 180.09375 C 58.808594 181.359375 58.976562 182.675781 59.019531 184.0625 C 59.496094 182.886719 59.996094 181.757812 60.601562 180.679688 C 61.195312 179.597656 61.765625 178.539062 62.386719 177.507812 Z M 62.386719 177.507812 " fill-opacity="1" fill-rule="nonzero"/></g></g></g><g clip-path="url(#aaf11ebc80)"><g clip-path="url(#e02fd0d0df)"><g clip-path="url(#6ad5d68833)"><path fill="#2a2118" d="M 57.804688 206.007812 C 57.953125 206.34375 58.09375 206.6875 58.21875 207.035156 L 58.222656 206.902344 L 58.253906 207.03125 C 58.285156 206.628906 58.332031 206.238281 58.402344 205.855469 C 58.480469 205.46875 58.574219 205.09375 58.683594 204.726562 C 58.898438 203.996094 59.167969 203.296875 59.472656 202.628906 C 60.113281 201.296875 60.941406 200.089844 61.78125 198.976562 C 62.660156 197.863281 63.585938 196.839844 64.417969 195.851562 C 65.265625 194.867188 66.070312 193.925781 66.652344 192.957031 C 66.9375 192.472656 67.25 191.96875 67.539062 191.441406 C 67.828125 190.917969 68.101562 190.375 68.363281 189.820312 C 68.890625 188.710938 69.410156 187.570312 69.804688 186.429688 C 70.261719 185.296875 70.597656 184.164062 70.863281 183.09375 C 71.152344 182.03125 71.289062 181.007812 71.328125 180.089844 C 69.609375 180.234375 67.644531 181.136719 65.691406 182.53125 C 64.746094 183.234375 63.824219 184.0625 62.953125 184.960938 C 62.511719 185.410156 62.121094 185.886719 61.742188 186.367188 C 61.359375 186.851562 61.003906 187.347656 60.671875 187.847656 C 60.296875 188.394531 59.964844 189.160156 59.652344 190.042969 C 59.34375 190.921875 59.027344 191.917969 58.808594 192.925781 C 58.578125 193.933594 58.347656 194.949219 58.203125 195.875 C 58.066406 196.800781 57.941406 197.625 57.847656 198.242188 C 57.769531 197.621094 57.664062 196.789062 57.542969 195.859375 C 57.414062 194.925781 57.324219 193.882812 57.171875 192.839844 C 57.015625 191.792969 56.902344 190.75 56.726562 189.800781 C 56.558594 188.855469 56.351562 188.007812 56.136719 187.371094 C 55.929688 186.789062 55.699219 186.1875 55.449219 185.574219 C 55.1875 184.957031 54.925781 184.332031 54.664062 183.714844 C 54.136719 182.46875 53.519531 181.214844 52.898438 180.042969 C 52.289062 178.871094 51.632812 177.773438 50.945312 176.84375 C 50.246094 175.910156 49.566406 175.160156 48.832031 174.671875 C 48.011719 176.859375 47.625 179.988281 47.703125 183.164062 C 47.722656 183.957031 47.796875 184.757812 47.878906 185.542969 C 47.96875 186.328125 48.050781 187.105469 48.207031 187.855469 C 48.355469 188.609375 48.527344 189.339844 48.71875 190.03125 C 48.90625 190.722656 49.109375 191.375 49.363281 191.984375 C 49.859375 193.199219 50.507812 194.414062 51.277344 195.632812 C 52.066406 196.847656 52.910156 198.066406 53.773438 199.296875 C 54.214844 199.914062 54.648438 200.53125 55.066406 201.15625 C 55.488281 201.78125 55.871094 202.414062 56.273438 203.050781 C 56.667969 203.691406 57.03125 204.339844 57.351562 205.003906 C 57.511719 205.332031 57.664062 205.667969 57.804688 206.007812 Z M 57.804688 206.007812 " fill-opacity="1" fill-rule="nonzero"/></g></g></g><g clip-path="url(#6e972552b9)"><g clip-path="url(#576a828029)"><g clip-path="url(#44aa6f3399)"><path fill="#2a2118" d="M 51.589844 218.125 C 52.0625 218.660156 52.570312 219.191406 53.09375 219.714844 C 53.621094 220.242188 54.167969 220.761719 54.71875 221.285156 C 55.289062 221.796875 55.863281 222.316406 56.449219 222.84375 C 57.023438 223.367188 57.59375 223.894531 58.148438 224.429688 C 58.726562 224.964844 59.285156 225.503906 59.816406 226.0625 C 60.355469 226.621094 60.839844 227.199219 61.328125 227.792969 C 61.816406 228.382812 62.261719 229 62.660156 229.644531 L 62.640625 229.511719 L 62.695312 229.632812 C 62.597656 228.808594 62.578125 228.003906 62.617188 227.21875 C 62.671875 226.433594 62.808594 225.664062 62.984375 224.925781 C 63.160156 224.183594 63.371094 223.464844 63.636719 222.765625 C 63.910156 222.066406 64.210938 221.386719 64.527344 220.726562 C 64.84375 220.070312 65.164062 219.433594 65.503906 218.8125 C 65.84375 218.195312 66.179688 217.589844 66.511719 216.992188 C 66.832031 216.398438 67.136719 215.820312 67.402344 215.253906 C 67.683594 214.6875 67.9375 214.125 68.132812 213.570312 C 68.332031 213.015625 68.515625 212.4375 68.675781 211.847656 C 68.847656 211.253906 69.023438 210.640625 69.167969 210.023438 C 69.316406 209.402344 69.433594 208.777344 69.550781 208.148438 C 69.679688 207.523438 69.789062 206.894531 69.871094 206.273438 C 70.207031 203.785156 70.320312 201.398438 69.957031 199.527344 C 69.113281 199.796875 68.230469 200.273438 67.355469 200.914062 C 66.914062 201.230469 66.476562 201.59375 66.042969 201.988281 C 65.613281 202.386719 65.203125 202.820312 64.800781 203.28125 C 63.160156 205.125 61.777344 207.457031 60.890625 209.773438 C 60.65625 210.40625 60.480469 211.253906 60.347656 212.210938 C 60.273438 212.691406 60.230469 213.199219 60.207031 213.714844 C 60.175781 214.234375 60.152344 214.769531 60.140625 215.304688 C 60.097656 216.375 60.148438 217.441406 60.191406 218.40625 C 60.238281 219.371094 60.28125 220.230469 60.351562 220.871094 C 60.109375 220.269531 59.84375 219.453125 59.515625 218.539062 C 59.191406 217.625 58.808594 216.609375 58.460938 215.585938 C 58.277344 215.074219 58.085938 214.566406 57.894531 214.070312 C 57.695312 213.570312 57.5 213.089844 57.320312 212.628906 C 56.945312 211.714844 56.558594 210.90625 56.171875 210.320312 C 55.808594 209.78125 55.457031 209.226562 55.070312 208.667969 C 54.683594 208.105469 54.277344 207.542969 53.851562 206.976562 C 53.417969 206.414062 53 205.851562 52.5625 205.300781 C 52.128906 204.746094 51.679688 204.207031 51.222656 203.691406 C 50.300781 202.65625 49.414062 201.703125 48.503906 200.925781 C 47.601562 200.152344 46.699219 199.554688 45.84375 199.234375 C 45.707031 200.421875 45.6875 201.824219 45.820312 203.324219 C 45.898438 204.070312 46.007812 204.84375 46.140625 205.628906 C 46.210938 206.023438 46.285156 206.417969 46.363281 206.8125 C 46.453125 207.210938 46.554688 207.605469 46.660156 208 C 46.867188 208.789062 47.101562 209.578125 47.355469 210.351562 C 47.609375 211.121094 47.925781 211.871094 48.230469 212.597656 C 48.546875 213.320312 48.867188 214.015625 49.21875 214.667969 C 49.582031 215.316406 49.953125 215.925781 50.332031 216.480469 C 50.710938 217.039062 51.128906 217.585938 51.589844 218.125 Z M 51.589844 218.125 " fill-opacity="1" fill-rule="nonzero"/></g></g></g><g clip-path="url(#a67c11f048)"><g clip-path="url(#50c180f553)"><g clip-path="url(#fc623aecd9)"><path fill="#2a2118" d="M 56.683594 240.925781 C 57.703125 241.875 58.917969 242.738281 60.199219 243.570312 C 61.492188 244.398438 62.910156 245.171875 64.285156 245.980469 C 65.675781 246.78125 67.105469 247.578125 68.402344 248.480469 C 69.734375 249.367188 70.988281 250.332031 72.066406 251.460938 L 72.011719 251.332031 L 72.097656 251.445312 C 71.816406 250.632812 71.640625 249.816406 71.523438 249.011719 C 71.410156 248.207031 71.34375 247.421875 71.382812 246.625 C 71.40625 245.835938 71.484375 245.054688 71.597656 244.292969 C 71.710938 243.535156 71.855469 242.789062 72.050781 242.046875 C 72.425781 240.570312 72.847656 239.179688 73.257812 237.839844 C 73.671875 236.496094 74.007812 235.234375 74.164062 234.03125 C 74.34375 232.816406 74.421875 231.53125 74.445312 230.21875 C 74.464844 229.5625 74.46875 228.898438 74.449219 228.242188 C 74.425781 227.582031 74.382812 226.929688 74.347656 226.277344 C 74.273438 224.980469 74.074219 223.738281 73.875 222.574219 C 73.761719 221.996094 73.625 221.441406 73.464844 220.921875 C 73.300781 220.402344 73.152344 219.90625 72.953125 219.457031 C 72.152344 219.917969 71.351562 220.597656 70.597656 221.4375 C 69.859375 222.277344 69.164062 223.28125 68.53125 224.394531 C 67.886719 225.511719 67.375 226.722656 66.9375 227.984375 C 66.722656 228.617188 66.515625 229.261719 66.359375 229.898438 C 66.210938 230.535156 66.085938 231.175781 65.988281 231.808594 C 65.75 233.199219 66.011719 235.378906 66.410156 237.554688 C 66.636719 238.632812 66.890625 239.707031 67.132812 240.671875 C 67.382812 241.636719 67.65625 242.476562 67.839844 243.117188 C 67.488281 242.550781 67 241.808594 66.476562 240.957031 C 65.960938 240.101562 65.375 239.152344 64.761719 238.214844 C 63.585938 236.3125 62.3125 234.433594 61.304688 233.40625 C 60.835938 232.941406 60.332031 232.46875 59.804688 231.996094 C 59.285156 231.519531 58.761719 231.035156 58.210938 230.558594 C 57.664062 230.085938 57.097656 229.613281 56.519531 229.160156 C 55.941406 228.707031 55.390625 228.257812 54.8125 227.835938 C 53.679688 226.992188 52.507812 226.246094 51.425781 225.667969 C 50.34375 225.085938 49.304688 224.683594 48.367188 224.554688 C 48.417969 225.167969 48.515625 225.832031 48.65625 226.523438 C 48.800781 227.214844 49.011719 227.933594 49.242188 228.671875 C 49.484375 229.410156 49.742188 230.171875 50.058594 230.925781 C 50.382812 231.683594 50.734375 232.441406 51.113281 233.195312 C 51.300781 233.570312 51.496094 233.945312 51.695312 234.316406 C 51.902344 234.683594 52.121094 235.046875 52.339844 235.402344 C 52.78125 236.117188 53.238281 236.8125 53.707031 237.476562 C 54.660156 238.792969 55.691406 239.964844 56.683594 240.925781 Z M 56.683594 240.925781 " fill-opacity="1" fill-rule="nonzero"/></g></g></g><g clip-path="url(#ba63331d80)"><g clip-path="url(#0d37d29949)"><g clip-path="url(#2d73095925)"><path fill="#2a2118" d="M 61.085938 257.613281 C 61.644531 258.277344 62.222656 258.933594 62.816406 259.5625 C 63.410156 260.191406 64.011719 260.796875 64.652344 261.351562 C 65.917969 262.457031 67.160156 263.449219 68.417969 264.167969 C 70.878906 265.652344 74.042969 266.597656 77.210938 267.59375 C 80.398438 268.585938 83.578125 269.632812 86.28125 271.410156 L 86.199219 271.289062 L 86.308594 271.382812 C 86.078125 271.007812 85.867188 270.625 85.679688 270.242188 C 85.496094 269.851562 85.339844 269.457031 85.199219 269.0625 C 84.917969 268.269531 84.707031 267.472656 84.550781 266.675781 C 84.253906 265.078125 84.222656 263.453125 84.257812 261.902344 C 84.308594 260.339844 84.488281 258.804688 84.59375 257.375 C 84.644531 256.664062 84.703125 255.960938 84.734375 255.28125 C 84.765625 254.601562 84.761719 253.949219 84.710938 253.324219 C 84.515625 250.820312 83.988281 248.023438 83.230469 245.464844 C 82.855469 244.179688 82.453125 242.9375 81.945312 241.835938 C 81.484375 240.710938 80.945312 239.710938 80.339844 238.894531 C 78.921875 240.175781 77.710938 242.324219 76.910156 244.855469 C 76.527344 246.109375 76.238281 247.460938 76.054688 248.839844 C 75.894531 250.199219 75.851562 251.578125 75.910156 252.90625 C 75.9375 253.636719 76.15625 254.519531 76.445312 255.507812 C 76.59375 256 76.761719 256.515625 76.949219 257.039062 C 77.140625 257.5625 77.363281 258.082031 77.585938 258.605469 C 78.453125 260.710938 79.5625 262.703125 80.207031 263.917969 C 79.246094 262.929688 77.644531 261.277344 76.050781 259.636719 C 75.644531 259.222656 75.226562 258.820312 74.820312 258.425781 C 74.425781 258.023438 74.027344 257.636719 73.640625 257.28125 C 72.871094 256.5625 72.113281 255.96875 71.492188 255.5625 C 70.351562 254.820312 69.0625 254.085938 67.734375 253.375 C 66.429688 252.652344 65.058594 251.96875 63.695312 251.382812 C 62.359375 250.78125 61.039062 250.273438 59.800781 249.9375 C 59.179688 249.765625 58.582031 249.640625 58.015625 249.566406 C 57.453125 249.488281 56.925781 249.460938 56.433594 249.5 C 56.609375 250.117188 56.867188 250.75 57.171875 251.414062 C 57.472656 252.078125 57.824219 252.761719 58.214844 253.460938 C 58.59375 254.164062 59.070312 254.847656 59.546875 255.546875 C 60.03125 256.238281 60.539062 256.9375 61.085938 257.613281 Z M 61.085938 257.613281 " fill-opacity="1" fill-rule="nonzero"/></g></g></g><g clip-path="url(#9fc5b6196f)"><g clip-path="url(#57eaca2ef0)"><g clip-path="url(#bffebe7de3)"><path fill="#2a2118" d="M 85.273438 285.09375 C 85.980469 285.332031 86.707031 285.542969 87.484375 285.699219 C 88.261719 285.855469 89.0625 285.984375 89.878906 286.097656 C 90.699219 286.203125 91.519531 286.3125 92.371094 286.382812 C 93.214844 286.453125 94.074219 286.527344 94.941406 286.601562 C 98.371094 286.910156 101.847656 287.203125 104.949219 288.402344 L 104.84375 288.296875 L 104.972656 288.371094 C 103.734375 287.019531 102.804688 285.578125 102.175781 284 C 101.855469 283.222656 101.589844 282.433594 101.371094 281.644531 C 101.152344 280.847656 100.992188 280.03125 100.851562 279.238281 C 100.710938 278.441406 100.597656 277.652344 100.492188 276.882812 C 100.402344 276.109375 100.3125 275.34375 100.226562 274.59375 C 100.136719 273.851562 100.039062 273.136719 99.917969 272.453125 C 99.792969 271.773438 99.667969 271.097656 99.488281 270.476562 C 99.3125 269.855469 99.105469 269.222656 98.871094 268.585938 C 98.632812 267.957031 98.402344 267.289062 98.132812 266.652344 C 97.867188 266.003906 97.578125 265.367188 97.269531 264.742188 C 96.980469 264.101562 96.671875 263.472656 96.34375 262.867188 C 95.675781 261.671875 95.011719 260.5 94.277344 259.484375 C 94.09375 259.230469 93.910156 258.984375 93.71875 258.75 C 93.535156 258.511719 93.355469 258.277344 93.167969 258.058594 C 92.796875 257.613281 92.414062 257.214844 92.023438 256.867188 C 91.433594 257.675781 90.949219 258.6875 90.570312 259.847656 C 90.378906 260.425781 90.214844 261.042969 90.085938 261.679688 C 89.960938 262.3125 89.867188 262.976562 89.800781 263.65625 C 89.519531 266.390625 89.78125 269.378906 90.480469 272.023438 C 90.679688 272.738281 91.066406 273.605469 91.566406 274.542969 C 92.066406 275.484375 92.71875 276.445312 93.382812 277.417969 C 94.035156 278.398438 94.78125 279.296875 95.4375 280.128906 C 95.773438 280.539062 96.085938 280.929688 96.375 281.28125 C 96.675781 281.625 96.949219 281.933594 97.179688 282.199219 C 96.882812 282.007812 96.535156 281.785156 96.148438 281.539062 C 95.769531 281.28125 95.355469 281 94.914062 280.703125 C 94.035156 280.105469 93.023438 279.476562 92.042969 278.804688 C 91.058594 278.140625 90.027344 277.519531 89.097656 276.960938 C 88.164062 276.402344 87.292969 275.949219 86.558594 275.6875 C 83.90625 274.726562 80.746094 273.796875 77.765625 273.179688 C 76.253906 272.890625 74.820312 272.660156 73.496094 272.589844 C 72.171875 272.515625 70.96875 272.597656 69.980469 272.894531 C 70.304688 273.464844 70.695312 274.058594 71.136719 274.667969 C 71.582031 275.269531 72.0625 275.902344 72.628906 276.503906 C 73.1875 277.113281 73.789062 277.722656 74.417969 278.324219 C 74.738281 278.621094 75.054688 278.925781 75.394531 279.214844 C 75.734375 279.5 76.082031 279.785156 76.433594 280.0625 C 77.136719 280.621094 77.859375 281.160156 78.589844 281.671875 C 79.328125 282.175781 80.09375 282.636719 80.847656 283.066406 C 81.601562 283.496094 82.339844 283.902344 83.089844 284.234375 C 83.839844 284.566406 84.570312 284.855469 85.273438 285.09375 Z M 85.273438 285.09375 " fill-opacity="1" fill-rule="nonzero"/></g></g></g><g clip-path="url(#b5d9d76394)"><g clip-path="url(#ae6a379e49)"><g clip-path="url(#0e54591b33)"><path fill="#2a2118" d="M 111.9375 302.414062 C 112.789062 302.332031 113.652344 302.226562 114.523438 302.113281 C 115.390625 301.980469 116.273438 301.847656 117.167969 301.710938 C 120.699219 301.203125 124.273438 300.636719 127.671875 301.082031 L 127.539062 301.007812 L 127.691406 301.042969 C 126.898438 300.53125 126.195312 299.941406 125.554688 299.324219 C 125.234375 299.011719 124.929688 298.695312 124.644531 298.363281 C 124.363281 298.023438 124.097656 297.675781 123.84375 297.320312 C 123.335938 296.613281 122.886719 295.882812 122.480469 295.140625 C 122.082031 294.382812 121.730469 293.605469 121.40625 292.835938 C 121.082031 292.066406 120.78125 291.308594 120.507812 290.546875 C 120.238281 289.785156 119.976562 289.039062 119.71875 288.300781 C 119.460938 287.574219 119.191406 286.894531 118.925781 286.21875 C 118.65625 285.542969 118.371094 284.910156 118.054688 284.328125 C 116.769531 282.011719 115.066406 279.539062 113.226562 277.425781 C 112.773438 276.886719 112.316406 276.359375 111.847656 275.875 C 111.382812 275.386719 110.894531 274.941406 110.433594 274.5 C 109.964844 274.0625 109.492188 273.667969 109.019531 273.316406 C 108.78125 273.140625 108.542969 272.980469 108.308594 272.828125 C 108.078125 272.667969 107.84375 272.519531 107.613281 272.386719 C 106.75 274.3125 106.511719 276.910156 106.8125 279.75 C 106.972656 281.15625 107.285156 282.585938 107.703125 284.007812 C 107.90625 284.726562 108.164062 285.402344 108.4375 286.074219 C 108.714844 286.746094 109.015625 287.402344 109.335938 288.035156 C 109.679688 288.734375 110.28125 289.492188 111 290.320312 C 111.359375 290.726562 111.746094 291.15625 112.164062 291.574219 C 112.585938 291.980469 113.027344 292.390625 113.476562 292.796875 C 113.925781 293.203125 114.378906 293.601562 114.828125 293.988281 C 115.289062 294.351562 115.738281 294.707031 116.164062 295.046875 C 117.027344 295.714844 117.796875 296.3125 118.398438 296.722656 C 117.703125 296.492188 116.800781 296.132812 115.769531 295.753906 C 115.253906 295.566406 114.707031 295.367188 114.144531 295.164062 C 113.589844 294.949219 113.019531 294.730469 112.441406 294.515625 C 111.867188 294.304688 111.285156 294.101562 110.710938 293.910156 C 110.140625 293.710938 109.585938 293.511719 109.050781 293.347656 C 107.984375 293 106.976562 292.773438 106.195312 292.660156 C 105.472656 292.566406 104.71875 292.484375 103.9375 292.421875 C 103.160156 292.351562 102.355469 292.3125 101.558594 292.253906 C 100.757812 292.199219 99.945312 292.167969 99.132812 292.152344 C 98.324219 292.136719 97.507812 292.144531 96.722656 292.148438 C 95.152344 292.171875 93.625 292.28125 92.253906 292.519531 C 90.894531 292.742188 89.699219 293.082031 88.765625 293.601562 C 89.21875 294.113281 89.730469 294.648438 90.320312 295.160156 C 90.914062 295.667969 91.5625 296.175781 92.257812 296.679688 C 92.605469 296.929688 92.964844 297.175781 93.332031 297.425781 C 93.703125 297.664062 94.089844 297.894531 94.484375 298.125 C 95.269531 298.582031 96.085938 299.023438 96.914062 299.445312 C 100.285156 301.0625 103.957031 302.214844 107.042969 302.492188 C 107.8125 302.5625 108.609375 302.589844 109.421875 302.578125 C 110.234375 302.570312 111.085938 302.496094 111.9375 302.414062 Z M 111.9375 302.414062 " fill-opacity="1" fill-rule="nonzero"/></g></g></g><g clip-path="url(#db0b404013)"><g clip-path="url(#5972d3412f)"><g clip-path="url(#8d19d33bc3)"><path fill="#2a2118" d="M 151.128906 306.871094 C 151.089844 306.847656 151.046875 306.828125 151.007812 306.804688 C 150.210938 306.335938 149.472656 305.808594 148.785156 305.242188 C 148.09375 304.683594 147.464844 304.027344 146.871094 303.386719 C 146.28125 302.726562 145.726562 302.074219 145.214844 301.371094 C 143.148438 298.585938 141.605469 295.695312 139.785156 293.660156 C 139.332031 293.152344 138.84375 292.648438 138.332031 292.15625 C 137.824219 291.664062 137.300781 291.148438 136.753906 290.667969 C 135.65625 289.722656 134.523438 288.757812 133.359375 287.933594 C 132.773438 287.523438 132.207031 287.09375 131.625 286.722656 C 131.050781 286.34375 130.460938 286.027344 129.902344 285.695312 C 128.777344 285.039062 127.648438 284.59375 126.613281 284.265625 C 126.40625 285.324219 126.371094 286.5625 126.535156 287.839844 C 126.691406 289.125 127.019531 290.496094 127.5 291.890625 C 127.984375 293.257812 128.632812 294.632812 129.386719 295.964844 C 130.152344 297.269531 131.035156 298.503906 131.980469 299.621094 C 132.503906 300.210938 133.28125 300.851562 134.199219 301.507812 C 134.65625 301.839844 135.15625 302.152344 135.679688 302.460938 C 136.199219 302.769531 136.742188 303.078125 137.289062 303.375 C 137.832031 303.683594 138.394531 303.949219 138.941406 304.210938 C 139.488281 304.472656 140.027344 304.722656 140.539062 304.957031 C 141.050781 305.195312 141.542969 305.394531 141.992188 305.574219 C 142.441406 305.753906 142.847656 305.917969 143.195312 306.058594 C 142.820312 306.019531 142.382812 305.980469 141.898438 305.933594 C 141.414062 305.886719 140.878906 305.84375 140.320312 305.769531 C 139.757812 305.707031 139.160156 305.640625 138.550781 305.574219 C 137.9375 305.507812 137.304688 305.457031 136.679688 305.375 C 136.050781 305.304688 135.417969 305.242188 134.792969 305.1875 C 134.171875 305.140625 133.5625 305.097656 132.984375 305.054688 C 131.828125 304.972656 130.777344 304.96875 129.949219 305.078125 C 128.453125 305.246094 126.832031 305.503906 125.183594 305.816406 C 123.550781 306.097656 121.871094 306.484375 120.285156 306.894531 C 118.699219 307.300781 117.183594 307.78125 115.855469 308.351562 C 114.539062 308.898438 113.402344 309.535156 112.582031 310.289062 C 113.160156 310.695312 113.808594 311.109375 114.527344 311.492188 C 115.25 311.863281 116.03125 312.222656 116.859375 312.5625 C 117.269531 312.734375 117.691406 312.902344 118.125 313.058594 C 118.5625 313.207031 119.007812 313.351562 119.460938 313.488281 C 120.371094 313.761719 121.296875 314.019531 122.246094 314.230469 C 124.15625 314.617188 126.089844 314.933594 127.976562 315.003906 C 128.917969 315.046875 129.828125 315.074219 130.710938 315.035156 C 131.597656 314.988281 132.445312 314.910156 133.238281 314.792969 C 134.820312 314.585938 136.484375 314.058594 138.152344 313.476562 C 138.984375 313.191406 139.832031 312.839844 140.683594 312.488281 C 141.519531 312.140625 142.371094 311.785156 143.230469 311.425781 C 145.867188 310.273438 148.492188 309.175781 151.164062 308.488281 C 152.242188 308.710938 153.324219 308.917969 154.414062 309.101562 C 157.886719 309.664062 161.394531 310.085938 164.925781 310.300781 C 168.457031 310.488281 172.007812 310.519531 175.5625 310.34375 C 179.117188 310.140625 182.667969 309.753906 186.203125 309.179688 L 185.359375 305.296875 C 174.230469 307.960938 162.5625 308.414062 151.128906 306.871094 Z M 151.128906 306.871094 " fill-opacity="1" fill-rule="nonzero"/></g></g></g><g clip-path="url(#9364c5fbef)"><g clip-path="url(#200e186ac8)"><g transform="matrix(1, 0, 0, 1, 187, 145)"><g clip-path="url(#36b277439a)"><g clip-path="url(#b12752ce64)"><g clip-path="url(#8d7446ebf8)"><g clip-path="url(#6d2b8b183a)"><g clip-path="url(#9daec7b9e5)"><path fill="#2a2118" d="M 125.605469 32.5 C 125 31.464844 124.460938 30.429688 123.921875 29.386719 C 123.40625 28.339844 122.984375 27.261719 122.621094 26.132812 C 122.449219 25.5625 122.296875 25 122.167969 24.433594 C 122.035156 23.871094 121.894531 23.320312 121.792969 22.769531 C 121.683594 22.21875 121.597656 21.667969 121.53125 21.125 C 121.460938 20.582031 121.386719 20.054688 121.34375 19.527344 C 121.195312 17.40625 121.226562 15.425781 121.605469 13.621094 C 123.144531 14.550781 124.722656 15.925781 126.03125 17.726562 C 126.359375 18.175781 126.695312 18.640625 126.996094 19.136719 C 127.289062 19.636719 127.570312 20.15625 127.839844 20.691406 C 128.109375 21.234375 128.375 21.785156 128.601562 22.363281 C 128.820312 22.945312 129.023438 23.539062 129.207031 24.152344 C 129.597656 25.367188 129.75 26.578125 129.816406 27.777344 C 129.898438 28.972656 129.8125 30.175781 129.710938 31.382812 C 129.652344 31.988281 129.613281 32.589844 129.527344 33.210938 C 129.449219 33.828125 129.371094 34.449219 129.304688 35.085938 C 129.183594 36.347656 129.019531 37.664062 128.976562 39.054688 C 128.5 37.878906 128 36.75 127.394531 35.667969 C 126.800781 34.585938 126.226562 33.53125 125.605469 32.5 Z M 125.605469 32.5 " fill-opacity="1" fill-rule="nonzero"/></g></g></g></g><g clip-path="url(#59c36ac057)"><g clip-path="url(#e9361a1298)"><g clip-path="url(#ef1f4e231f)"><g clip-path="url(#8dc72735cc)"><path fill="#2a2118" d="M 130.195312 60.996094 C 130.046875 61.335938 129.90625 61.679688 129.78125 62.023438 L 129.777344 61.894531 L 129.75 62.023438 C 129.714844 61.621094 129.667969 61.226562 129.597656 60.84375 C 129.519531 60.460938 129.425781 60.085938 129.316406 59.71875 C 129.101562 58.984375 128.832031 58.285156 128.527344 57.621094 C 127.882812 56.289062 127.058594 55.082031 126.214844 53.96875 C 125.339844 52.851562 124.414062 51.828125 123.582031 50.84375 C 122.730469 49.859375 121.929688 48.917969 121.34375 47.949219 C 121.058594 47.464844 120.746094 46.960938 120.460938 46.433594 C 120.167969 45.910156 119.894531 45.367188 119.636719 44.8125 C 119.105469 43.707031 118.585938 42.5625 118.191406 41.421875 C 117.734375 40.289062 117.398438 39.160156 117.132812 38.089844 C 116.84375 37.023438 116.707031 36 116.667969 35.082031 C 118.386719 35.226562 120.351562 36.128906 122.304688 37.523438 C 123.25 38.226562 124.171875 39.050781 125.042969 39.953125 C 125.484375 40.402344 125.875 40.875 126.253906 41.359375 C 126.636719 41.84375 126.992188 42.339844 127.324219 42.839844 C 127.699219 43.386719 128.03125 44.152344 128.34375 45.03125 C 128.652344 45.914062 128.972656 46.90625 129.191406 47.914062 C 129.417969 48.921875 129.652344 49.941406 129.796875 50.863281 C 129.933594 51.789062 130.058594 52.613281 130.148438 53.230469 C 130.230469 52.609375 130.335938 51.78125 130.453125 50.847656 C 130.582031 49.914062 130.675781 48.875 130.824219 47.828125 C 130.984375 46.785156 131.09375 45.738281 131.269531 44.792969 C 131.4375 43.84375 131.644531 42.996094 131.859375 42.359375 C 132.066406 41.777344 132.296875 41.175781 132.546875 40.5625 C 132.808594 39.945312 133.070312 39.324219 133.332031 38.703125 C 133.859375 37.460938 134.476562 36.203125 135.09375 35.03125 C 135.703125 33.859375 136.363281 32.761719 137.050781 31.832031 C 137.75 30.902344 138.425781 30.148438 139.160156 29.660156 C 139.980469 31.847656 140.367188 34.976562 140.289062 38.152344 C 140.273438 38.945312 140.195312 39.746094 140.117188 40.53125 C 140.027344 41.316406 139.945312 42.09375 139.789062 42.84375 C 139.640625 43.597656 139.46875 44.328125 139.28125 45.019531 C 139.089844 45.710938 138.886719 46.363281 138.632812 46.972656 C 138.136719 48.1875 137.492188 49.402344 136.71875 50.621094 C 135.929688 51.835938 135.089844 53.054688 134.222656 54.285156 C 133.785156 54.902344 133.347656 55.519531 132.933594 56.144531 C 132.507812 56.769531 132.128906 57.402344 131.726562 58.039062 C 131.332031 58.679688 130.96875 59.328125 130.648438 59.992188 C 130.488281 60.324219 130.335938 60.660156 130.195312 60.996094 Z M 130.195312 60.996094 " fill-opacity="1" fill-rule="nonzero"/></g></g></g></g><g clip-path="url(#df227702fd)"><g clip-path="url(#f66a9f9d7a)"><g clip-path="url(#1e08bedb8b)"><g clip-path="url(#3a74bddfb7)"><path fill="#2a2118" d="M 136.414062 73.113281 C 135.9375 73.648438 135.433594 74.179688 134.90625 74.703125 C 134.382812 75.230469 133.835938 75.753906 133.285156 76.273438 C 132.714844 76.789062 132.140625 77.308594 131.554688 77.832031 C 130.980469 78.355469 130.410156 78.882812 129.855469 79.421875 C 129.277344 79.953125 128.71875 80.496094 128.1875 81.054688 C 127.652344 81.613281 127.164062 82.191406 126.675781 82.78125 C 126.191406 83.375 125.742188 83.988281 125.34375 84.636719 L 125.367188 84.503906 L 125.308594 84.625 C 125.410156 83.796875 125.429688 82.992188 125.386719 82.210938 C 125.332031 81.425781 125.195312 80.65625 125.023438 79.914062 C 124.84375 79.171875 124.632812 78.457031 124.367188 77.757812 C 124.09375 77.054688 123.792969 76.378906 123.476562 75.71875 C 123.160156 75.0625 122.839844 74.425781 122.5 73.804688 C 122.160156 73.1875 121.824219 72.582031 121.492188 71.984375 C 121.171875 71.390625 120.867188 70.8125 120.601562 70.246094 C 120.320312 69.679688 120.066406 69.117188 119.867188 68.5625 C 119.667969 68.007812 119.488281 67.433594 119.324219 66.839844 C 119.15625 66.246094 118.976562 65.632812 118.835938 65.015625 C 118.683594 64.394531 118.566406 63.769531 118.449219 63.144531 C 118.320312 62.515625 118.210938 61.886719 118.128906 61.265625 C 117.789062 58.777344 117.679688 56.390625 118.042969 54.519531 C 118.886719 54.792969 119.765625 55.265625 120.644531 55.90625 C 121.085938 56.222656 121.523438 56.585938 121.957031 56.980469 C 122.386719 57.378906 122.792969 57.8125 123.199219 58.273438 C 124.839844 60.117188 126.222656 62.449219 127.109375 64.765625 C 127.34375 65.398438 127.519531 66.242188 127.652344 67.203125 C 127.726562 67.683594 127.769531 68.1875 127.796875 68.707031 C 127.828125 69.226562 127.847656 69.761719 127.863281 70.296875 C 127.902344 71.367188 127.855469 72.433594 127.8125 73.398438 C 127.765625 74.359375 127.722656 75.222656 127.652344 75.863281 C 127.894531 75.257812 128.160156 74.445312 128.484375 73.53125 C 128.808594 72.613281 129.191406 71.601562 129.542969 70.578125 C 129.726562 70.066406 129.914062 69.554688 130.109375 69.058594 C 130.308594 68.5625 130.5 68.078125 130.683594 67.621094 C 131.054688 66.703125 131.441406 65.894531 131.828125 65.308594 C 132.191406 64.773438 132.542969 64.214844 132.929688 63.65625 C 133.316406 63.097656 133.726562 62.53125 134.148438 61.964844 C 134.582031 61.402344 135 60.839844 135.4375 60.289062 C 135.871094 59.738281 136.320312 59.195312 136.773438 58.679688 C 137.699219 57.644531 138.585938 56.691406 139.496094 55.914062 C 140.398438 55.140625 141.296875 54.539062 142.15625 54.21875 C 142.289062 55.410156 142.3125 56.8125 142.179688 58.308594 C 142.101562 59.058594 141.992188 59.832031 141.859375 60.617188 C 141.789062 61.011719 141.714844 61.40625 141.636719 61.800781 C 141.546875 62.195312 141.445312 62.59375 141.339844 62.988281 C 141.132812 63.777344 140.898438 64.566406 140.644531 65.339844 C 140.390625 66.109375 140.078125 66.859375 139.769531 67.585938 C 139.453125 68.308594 139.136719 69.003906 138.78125 69.65625 C 138.421875 70.304688 138.050781 70.914062 137.671875 71.46875 C 137.292969 72.027344 136.875 72.574219 136.414062 73.113281 Z M 136.414062 73.113281 " fill-opacity="1" fill-rule="nonzero"/></g></g></g></g><g clip-path="url(#0bf546bcae)"><g clip-path="url(#4b7720c8d4)"><g clip-path="url(#f52f69c4ab)"><g clip-path="url(#87f44d6a4b)"><path fill="#2a2118" d="M 131.324219 95.914062 C 130.304688 96.863281 129.089844 97.726562 127.808594 98.558594 C 126.515625 99.386719 125.101562 100.164062 123.722656 100.972656 C 122.332031 101.773438 120.90625 102.570312 119.605469 103.472656 C 118.277344 104.359375 117.023438 105.324219 115.945312 106.457031 L 116 106.328125 L 115.914062 106.4375 C 116.191406 105.625 116.371094 104.808594 116.488281 104.007812 C 116.597656 103.199219 116.664062 102.414062 116.628906 101.617188 C 116.601562 100.828125 116.523438 100.050781 116.410156 99.289062 C 116.300781 98.527344 116.152344 97.78125 115.957031 97.042969 C 115.582031 95.5625 115.160156 94.171875 114.75 92.832031 C 114.335938 91.488281 113.996094 90.226562 113.84375 89.023438 C 113.660156 87.8125 113.585938 86.523438 113.5625 85.214844 C 113.539062 84.554688 113.539062 83.890625 113.558594 83.234375 C 113.578125 82.578125 113.625 81.921875 113.65625 81.273438 C 113.734375 79.972656 113.929688 78.730469 114.128906 77.566406 C 114.242188 76.988281 114.375 76.4375 114.539062 75.914062 C 114.703125 75.394531 114.851562 74.898438 115.050781 74.449219 C 115.847656 74.910156 116.652344 75.589844 117.40625 76.429688 C 118.144531 77.269531 118.839844 78.273438 119.472656 79.386719 C 120.117188 80.503906 120.628906 81.714844 121.070312 82.976562 C 121.285156 83.609375 121.492188 84.253906 121.644531 84.890625 C 121.796875 85.527344 121.921875 86.167969 122.019531 86.800781 C 122.257812 88.1875 121.996094 90.371094 121.597656 92.546875 C 121.371094 93.625 121.117188 94.695312 120.875 95.664062 C 120.625 96.628906 120.351562 97.46875 120.167969 98.109375 C 120.519531 97.542969 121.007812 96.800781 121.53125 95.949219 C 122.046875 95.09375 122.632812 94.144531 123.246094 93.203125 C 124.421875 91.304688 125.695312 89.425781 126.703125 88.398438 C 127.171875 87.933594 127.675781 87.460938 128.199219 86.984375 C 128.722656 86.507812 129.242188 86.023438 129.796875 85.550781 C 130.34375 85.074219 130.910156 84.605469 131.484375 84.148438 C 132.066406 83.695312 132.617188 83.246094 133.191406 82.828125 C 134.328125 81.980469 135.496094 81.234375 136.578125 80.65625 C 137.660156 80.074219 138.699219 79.671875 139.640625 79.542969 C 139.585938 80.15625 139.488281 80.820312 139.347656 81.511719 C 139.203125 82.203125 138.992188 82.921875 138.761719 83.660156 C 138.523438 84.398438 138.265625 85.160156 137.945312 85.914062 C 137.621094 86.671875 137.269531 87.429688 136.894531 88.183594 C 136.703125 88.558594 136.511719 88.933594 136.3125 89.304688 C 136.101562 89.671875 135.886719 90.035156 135.664062 90.390625 C 135.226562 91.109375 134.769531 91.800781 134.300781 92.464844 C 133.347656 93.78125 132.316406 94.953125 131.324219 95.914062 Z M 131.324219 95.914062 " fill-opacity="1" fill-rule="nonzero"/></g></g></g></g><g clip-path="url(#a2c872c47b)"><g clip-path="url(#1f9be0ad68)"><g clip-path="url(#980fdf94e4)"><g clip-path="url(#9610d4ec92)"><path fill="#2a2118" d="M 126.925781 112.601562 C 126.367188 113.269531 125.789062 113.925781 125.195312 114.554688 C 124.601562 115.183594 124 115.789062 123.359375 116.339844 C 122.09375 117.449219 120.851562 118.441406 119.59375 119.160156 C 117.132812 120.644531 113.96875 121.589844 110.804688 122.589844 C 107.617188 123.582031 104.4375 124.628906 101.734375 126.40625 L 101.816406 126.285156 L 101.707031 126.378906 C 101.9375 126.003906 102.144531 125.621094 102.335938 125.238281 C 102.515625 124.847656 102.671875 124.453125 102.816406 124.058594 C 103.097656 123.265625 103.308594 122.46875 103.460938 121.671875 C 103.761719 120.074219 103.789062 118.445312 103.753906 116.898438 C 103.703125 115.335938 103.523438 113.800781 103.417969 112.371094 C 103.367188 111.660156 103.304688 110.953125 103.277344 110.277344 C 103.246094 109.597656 103.25 108.945312 103.296875 108.320312 C 103.496094 105.816406 104.019531 103.019531 104.777344 100.460938 C 105.152344 99.175781 105.558594 97.933594 106.0625 96.832031 C 106.523438 95.707031 107.0625 94.707031 107.667969 93.890625 C 109.085938 95.171875 110.296875 97.320312 111.097656 99.851562 C 111.480469 101.105469 111.769531 102.457031 111.957031 103.832031 C 112.117188 105.195312 112.160156 106.574219 112.101562 107.902344 C 112.074219 108.628906 111.855469 109.515625 111.566406 110.503906 C 111.417969 110.996094 111.25 111.511719 111.0625 112.035156 C 110.871094 112.554688 110.648438 113.074219 110.425781 113.597656 C 109.558594 115.707031 108.449219 117.699219 107.808594 118.914062 C 108.769531 117.921875 110.367188 116.273438 111.960938 114.628906 C 112.367188 114.21875 112.785156 113.816406 113.191406 113.417969 C 113.585938 113.015625 113.984375 112.632812 114.371094 112.273438 C 115.140625 111.554688 115.898438 110.960938 116.519531 110.554688 C 117.660156 109.816406 118.949219 109.078125 120.277344 108.367188 C 121.582031 107.644531 122.953125 106.960938 124.316406 106.375 C 125.648438 105.773438 126.96875 105.265625 128.210938 104.925781 C 128.828125 104.757812 129.425781 104.632812 129.996094 104.554688 C 130.554688 104.480469 131.082031 104.453125 131.574219 104.488281 C 131.402344 105.105469 131.140625 105.742188 130.839844 106.40625 C 130.539062 107.066406 130.1875 107.753906 129.796875 108.449219 C 129.414062 109.152344 128.941406 109.835938 128.464844 110.535156 C 127.980469 111.230469 127.472656 111.929688 126.925781 112.601562 Z M 126.925781 112.601562 " fill-opacity="1" fill-rule="nonzero"/></g></g></g></g><g clip-path="url(#f038508908)"><g clip-path="url(#7bde8c8928)"><g clip-path="url(#0b83c0baf4)"><g clip-path="url(#5f96f1ddbb)"><path fill="#2a2118" d="M 102.742188 140.089844 C 102.035156 140.328125 101.3125 140.539062 100.53125 140.695312 C 99.757812 140.851562 98.953125 140.980469 98.140625 141.09375 C 97.320312 141.203125 96.5 141.308594 95.644531 141.382812 C 94.800781 141.453125 93.945312 141.523438 93.078125 141.597656 C 89.648438 141.910156 86.167969 142.203125 83.066406 143.402344 L 83.175781 143.296875 L 83.042969 143.371094 C 84.285156 142.019531 85.214844 140.578125 85.839844 139 C 86.164062 138.222656 86.425781 137.433594 86.648438 136.640625 C 86.867188 135.847656 87.023438 135.03125 87.164062 134.238281 C 87.304688 133.441406 87.417969 132.652344 87.523438 131.882812 C 87.613281 131.105469 87.703125 130.34375 87.789062 129.59375 C 87.878906 128.851562 87.976562 128.136719 88.097656 127.453125 C 88.222656 126.773438 88.34375 126.097656 88.527344 125.476562 C 88.703125 124.851562 88.910156 124.21875 89.144531 123.585938 C 89.382812 122.957031 89.609375 122.289062 89.882812 121.648438 C 90.148438 121.003906 90.4375 120.367188 90.742188 119.742188 C 91.03125 119.101562 91.34375 118.472656 91.667969 117.867188 C 92.335938 116.667969 93.003906 115.496094 93.734375 114.484375 C 93.917969 114.226562 94.105469 113.984375 94.292969 113.75 C 94.476562 113.511719 94.65625 113.273438 94.84375 113.054688 C 95.214844 112.613281 95.597656 112.210938 95.988281 111.863281 C 96.578125 112.671875 97.0625 113.6875 97.445312 114.84375 C 97.632812 115.421875 97.796875 116.039062 97.925781 116.679688 C 98.050781 117.3125 98.144531 117.972656 98.210938 118.652344 C 98.496094 121.386719 98.234375 124.375 97.535156 127.019531 C 97.335938 127.734375 96.949219 128.605469 96.449219 129.542969 C 95.949219 130.480469 95.296875 131.445312 94.632812 132.417969 C 93.980469 133.394531 93.234375 134.296875 92.578125 135.125 C 92.246094 135.539062 91.929688 135.925781 91.640625 136.28125 C 91.339844 136.625 91.070312 136.933594 90.835938 137.199219 C 91.132812 137.007812 91.484375 136.785156 91.867188 136.535156 C 92.246094 136.28125 92.664062 136 93.101562 135.703125 C 93.980469 135.101562 94.992188 134.472656 95.972656 133.804688 C 96.957031 133.140625 97.988281 132.519531 98.921875 131.957031 C 99.851562 131.398438 100.722656 130.945312 101.457031 130.6875 C 104.109375 129.722656 107.269531 128.792969 110.25 128.175781 C 111.761719 127.882812 113.195312 127.652344 114.519531 127.582031 C 115.84375 127.507812 117.046875 127.589844 118.035156 127.890625 C 117.710938 128.457031 117.320312 129.050781 116.878906 129.660156 C 116.433594 130.261719 115.953125 130.898438 115.386719 131.496094 C 114.828125 132.105469 114.230469 132.714844 113.597656 133.316406 C 113.277344 133.617188 112.960938 133.917969 112.625 134.207031 C 112.28125 134.496094 111.9375 134.777344 111.585938 135.058594 C 110.882812 135.617188 110.15625 136.15625 109.425781 136.667969 C 108.6875 137.171875 107.921875 137.628906 107.171875 138.0625 C 106.414062 138.488281 105.679688 138.894531 104.929688 139.230469 C 104.179688 139.5625 103.445312 139.851562 102.742188 140.089844 Z M 102.742188 140.089844 " fill-opacity="1" fill-rule="nonzero"/></g></g></g></g><g clip-path="url(#fb8e5d9523)"><g clip-path="url(#f053f0b802)"><g clip-path="url(#e8fdc92ff2)"><g clip-path="url(#41c45418c8)"><path fill="#2a2118" d="M 76.085938 157.417969 C 75.230469 157.332031 74.367188 157.230469 73.5 157.117188 C 72.628906 156.984375 71.746094 156.851562 70.851562 156.714844 C 67.320312 156.207031 63.75 155.644531 60.347656 156.089844 L 60.480469 156.011719 L 60.332031 156.050781 C 61.121094 155.535156 61.824219 154.945312 62.464844 154.328125 C 62.785156 154.019531 63.089844 153.703125 63.375 153.367188 C 63.65625 153.027344 63.925781 152.679688 64.175781 152.328125 C 64.683594 151.617188 65.132812 150.886719 65.539062 150.144531 C 65.9375 149.386719 66.289062 148.609375 66.613281 147.839844 C 66.9375 147.070312 67.238281 146.3125 67.511719 145.550781 C 67.78125 144.789062 68.042969 144.042969 68.300781 143.304688 C 68.558594 142.578125 68.824219 141.894531 69.09375 141.222656 C 69.359375 140.546875 69.644531 139.914062 69.964844 139.332031 C 71.25 137.015625 72.949219 134.539062 74.789062 132.425781 C 75.242188 131.886719 75.699219 131.363281 76.167969 130.878906 C 76.632812 130.386719 77.121094 129.945312 77.582031 129.5 C 78.050781 129.066406 78.523438 128.667969 78.996094 128.316406 C 79.234375 128.144531 79.472656 127.980469 79.707031 127.828125 C 79.9375 127.667969 80.167969 127.519531 80.402344 127.386719 C 81.265625 129.3125 81.503906 131.914062 81.203125 134.75 C 81.046875 136.15625 80.730469 137.585938 80.316406 139.011719 C 80.109375 139.726562 79.851562 140.402344 79.578125 141.078125 C 79.304688 141.75 79.003906 142.40625 78.683594 143.035156 C 78.339844 143.734375 77.734375 144.492188 77.019531 145.320312 C 76.660156 145.730469 76.273438 146.160156 75.855469 146.574219 C 75.433594 146.984375 74.992188 147.394531 74.542969 147.800781 C 74.09375 148.203125 73.640625 148.605469 73.191406 148.988281 C 72.730469 149.355469 72.28125 149.710938 71.855469 150.050781 C 70.992188 150.71875 70.222656 151.316406 69.621094 151.726562 C 70.320312 151.496094 71.21875 151.136719 72.25 150.753906 C 72.765625 150.566406 73.3125 150.367188 73.875 150.164062 C 74.429688 149.949219 75 149.730469 75.578125 149.519531 C 76.152344 149.308594 76.734375 149.101562 77.308594 148.910156 C 77.878906 148.714844 78.433594 148.515625 78.96875 148.347656 C 80.035156 148.003906 81.042969 147.777344 81.824219 147.664062 C 82.546875 147.566406 83.300781 147.484375 84.082031 147.421875 C 84.859375 147.351562 85.664062 147.3125 86.460938 147.25 C 87.261719 147.199219 88.074219 147.164062 88.886719 147.148438 C 89.695312 147.132812 90.511719 147.144531 91.292969 147.148438 C 92.867188 147.167969 94.394531 147.28125 95.765625 147.515625 C 97.125 147.738281 98.320312 148.078125 99.253906 148.601562 C 98.800781 149.109375 98.292969 149.644531 97.699219 150.15625 C 97.105469 150.664062 96.457031 151.171875 95.761719 151.675781 C 95.414062 151.925781 95.054688 152.175781 94.6875 152.421875 C 94.316406 152.664062 93.929688 152.894531 93.535156 153.125 C 92.75 153.582031 91.9375 154.023438 91.105469 154.441406 C 87.734375 156.0625 84.066406 157.214844 80.976562 157.492188 C 80.207031 157.566406 79.414062 157.589844 78.597656 157.582031 C 77.785156 157.570312 76.933594 157.496094 76.085938 157.417969 Z M 76.085938 157.417969 " fill-opacity="1" fill-rule="nonzero"/></g></g></g></g><g clip-path="url(#679dd4f599)"><g clip-path="url(#554c9b4b76)"><g clip-path="url(#3a6b5ddd5b)"><g clip-path="url(#77c14ec9f7)"><path fill="#2a2118" d="M 36.890625 161.882812 C 36.933594 161.859375 36.972656 161.839844 37.015625 161.816406 C 37.8125 161.34375 38.550781 160.820312 39.238281 160.253906 C 39.929688 159.695312 40.558594 159.039062 41.148438 158.394531 C 41.738281 157.738281 42.292969 157.082031 42.808594 156.378906 C 44.875 153.597656 46.414062 150.703125 48.234375 148.667969 C 48.6875 148.160156 49.175781 147.65625 49.6875 147.164062 C 50.195312 146.671875 50.71875 146.15625 51.265625 145.675781 C 52.363281 144.730469 53.496094 143.765625 54.660156 142.9375 C 55.242188 142.53125 55.8125 142.097656 56.390625 141.730469 C 56.96875 141.347656 57.554688 141.035156 58.117188 140.699219 C 59.242188 140.046875 60.371094 139.597656 61.40625 139.269531 C 61.609375 140.332031 61.644531 141.570312 61.484375 142.84375 C 61.328125 144.128906 61 145.5 60.519531 146.894531 C 60.035156 148.265625 59.386719 149.636719 58.632812 150.972656 C 57.867188 152.273438 56.984375 153.511719 56.039062 154.625 C 55.515625 155.214844 54.738281 155.859375 53.820312 156.511719 C 53.363281 156.847656 52.863281 157.160156 52.34375 157.46875 C 51.820312 157.777344 51.28125 158.085938 50.734375 158.382812 C 50.1875 158.691406 49.628906 158.957031 49.082031 159.21875 C 48.535156 159.480469 47.996094 159.730469 47.484375 159.964844 C 46.972656 160.207031 46.480469 160.402344 46.03125 160.582031 C 45.582031 160.761719 45.175781 160.925781 44.828125 161.066406 C 45.199219 161.03125 45.636719 160.988281 46.121094 160.941406 C 46.605469 160.898438 47.140625 160.851562 47.699219 160.777344 C 48.265625 160.714844 48.859375 160.648438 49.46875 160.582031 C 50.082031 160.515625 50.71875 160.464844 51.34375 160.382812 C 51.972656 160.3125 52.605469 160.246094 53.226562 160.195312 C 53.851562 160.148438 54.460938 160.105469 55.035156 160.0625 C 56.191406 159.980469 57.246094 159.972656 58.074219 160.085938 C 59.566406 160.25 61.191406 160.511719 62.835938 160.820312 C 64.46875 161.101562 66.152344 161.488281 67.738281 161.898438 C 69.320312 162.300781 70.835938 162.785156 72.167969 163.355469 C 73.484375 163.902344 74.617188 164.539062 75.441406 165.289062 C 74.863281 165.699219 74.214844 166.113281 73.496094 166.496094 C 72.773438 166.867188 71.992188 167.226562 71.167969 167.566406 C 70.753906 167.738281 70.332031 167.902344 69.898438 168.0625 C 69.460938 168.210938 69.015625 168.355469 68.5625 168.492188 C 67.65625 168.765625 66.726562 169.023438 65.777344 169.234375 C 63.867188 169.621094 61.933594 169.9375 60.046875 170.007812 C 59.109375 170.050781 58.199219 170.078125 57.3125 170.039062 C 56.425781 169.996094 55.582031 169.914062 54.785156 169.800781 C 53.203125 169.589844 51.539062 169.066406 49.871094 168.484375 C 49.039062 168.199219 48.191406 167.847656 47.34375 167.496094 C 46.503906 167.148438 45.652344 166.792969 44.792969 166.433594 C 42.15625 165.285156 39.53125 164.1875 36.859375 163.5 C 35.78125 163.71875 34.695312 163.929688 33.609375 164.113281 C 30.136719 164.679688 26.628906 165.097656 23.097656 165.3125 C 19.566406 165.503906 16.015625 165.535156 12.460938 165.359375 C 8.90625 165.15625 5.355469 164.773438 1.820312 164.199219 L 2.660156 160.316406 C 13.789062 162.976562 25.457031 163.429688 36.890625 161.882812 Z M 36.890625 161.882812 " fill-opacity="1" fill-rule="nonzero"/></g></g></g></g></g></g></g></g></svg>